<svg width="34" height="42" viewBox="0 0 34 42" fill="none" xmlns="http://www.w3.org/2000/svg">
<path d="M33 17.3636C33 30.0909 17 41 17 41C17 41 1 30.0909 1 17.3636C1 13.0237 2.68571 8.86158 5.68629 5.7928C8.68687 2.72402 12.7565 1 17 1C21.2435 1 25.3131 2.72402 28.3137 5.7928C31.3143 8.86158 33 13.0237 33 17.3636Z" stroke="#1E90FF" stroke-width="2" stroke-linecap="round" stroke-linejoin="round"/>
<path d="M17 22.8183C19.9455 22.8183 22.3333 20.3762 22.3333 17.3637C22.3333 14.3513 19.9455 11.9092 17 11.9092C14.0544 11.9092 11.6666 14.3513 11.6666 17.3637C11.6666 20.3762 14.0544 22.8183 17 22.8183Z" stroke="#1E90FF" stroke-width="2" stroke-linecap="round" stroke-linejoin="round"/>
</svg>
