<svg width="258" height="50" viewBox="0 0 258 50" fill="none" xmlns="http://www.w3.org/2000/svg">
<path d="M250.799 20.9474L256.065 13.7368H258V23.0596H256.321V15.849L251.084 23.0596H249.12V13.7368H250.799V20.9474ZM254.955 10.6292H256.52C256.52 11.2847 256.254 11.8208 255.723 12.2376C255.192 12.6544 254.471 12.8627 253.56 12.8627C252.663 12.8627 251.95 12.6544 251.418 12.2376C250.892 11.8208 250.628 11.2847 250.628 10.6292H252.194C252.194 10.9448 252.296 11.2219 252.5 11.4607C252.709 11.6994 253.062 11.8188 253.56 11.8188C254.058 11.8188 254.414 11.6994 254.627 11.4607C254.846 11.2219 254.955 10.9448 254.955 10.6292Z" fill="#1E90FF"/>
<path d="M241.604 23.2537C240.618 23.2537 239.752 23.0534 239.007 22.6528C238.267 22.2522 237.689 21.6918 237.271 20.9715C236.859 20.2513 236.652 19.4096 236.652 18.4466C236.652 17.4755 236.859 16.6278 237.271 15.9035C237.689 15.1792 238.267 14.6167 239.007 14.2161C239.752 13.8155 240.618 13.6152 241.604 13.6152C242.591 13.6152 243.454 13.8155 244.194 14.2161C244.939 14.6167 245.518 15.1792 245.931 15.9035C246.348 16.6278 246.557 17.4755 246.557 18.4466C246.557 19.4096 246.348 20.2513 245.931 20.9715C245.518 21.6918 244.939 22.2522 244.194 22.6528C243.454 23.0534 242.591 23.2537 241.604 23.2537ZM241.604 21.9669C242.354 21.9669 242.971 21.803 243.454 21.4753C243.938 21.1475 244.296 20.7166 244.529 20.1825C244.761 19.6484 244.878 19.0697 244.878 18.4466C244.878 17.8235 244.761 17.2428 244.529 16.7046C244.296 16.1665 243.938 15.7315 243.454 15.3997C242.971 15.0679 242.354 14.902 241.604 14.902C240.855 14.902 240.238 15.0679 239.755 15.3997C239.271 15.7315 238.913 16.1665 238.68 16.7046C238.448 17.2428 238.331 17.8235 238.331 18.4466C238.331 19.0697 238.448 19.6484 238.68 20.1825C238.913 20.7166 239.271 21.1475 239.755 21.4753C240.238 21.803 240.855 21.9669 241.604 21.9669Z" fill="#1E90FF"/>
<path d="M224.955 26.5555V13.7366H226.577V15.2176H226.776C226.899 15.0557 227.07 14.8494 227.288 14.5985C227.511 14.3436 227.829 14.117 228.242 13.9187C228.659 13.7164 229.224 13.6152 229.935 13.6152C230.856 13.6152 231.667 13.8115 232.369 14.204C233.071 14.5965 233.619 15.1529 234.012 15.8731C234.406 16.5934 234.603 17.4431 234.603 18.4223C234.603 19.4096 234.406 20.2654 234.012 20.9897C233.619 21.71 233.073 22.2684 232.376 22.6649C231.679 23.0574 230.875 23.2537 229.964 23.2537C229.262 23.2537 228.7 23.1545 228.277 22.9563C227.855 22.7539 227.53 22.5253 227.303 22.2704C227.075 22.0114 226.899 21.797 226.776 21.627H226.634V26.5555H224.955ZM226.605 18.398C226.605 19.1021 226.726 19.7232 226.968 20.2614C227.21 20.7955 227.564 21.2143 228.028 21.5178C228.493 21.8172 229.063 21.9669 229.736 21.9669C230.438 21.9669 231.024 21.8091 231.494 21.4935C231.968 21.1738 232.324 20.7449 232.561 20.2068C232.803 19.6645 232.924 19.0616 232.924 18.398C232.924 17.7425 232.805 17.1518 232.568 16.6257C232.336 16.0957 231.982 15.6769 231.508 15.3693C231.038 15.0578 230.448 14.902 229.736 14.902C229.053 14.902 228.479 15.0497 228.014 15.3451C227.549 15.6364 227.198 16.0451 226.961 16.5711C226.724 17.0931 226.605 17.7021 226.605 18.398Z" fill="#1E90FF"/>
<path d="M213.625 15.0721V13.7368H222.505V15.0721H218.919V23.0596H217.24V15.0721H213.625Z" fill="#1E90FF"/>
<path d="M211.628 14.5137H209.863C209.759 14.0807 209.576 13.7004 209.315 13.3726C209.059 13.0449 208.746 12.7697 208.376 12.5472C208.011 12.3206 207.605 12.1506 207.159 12.0373C206.713 11.924 206.248 11.8674 205.765 11.8674C204.882 11.8674 204.083 12.0575 203.367 12.4379C202.655 12.8183 202.088 13.3787 201.666 14.1192C201.249 14.8596 201.04 15.7681 201.04 16.8444C201.04 17.9207 201.249 18.8291 201.666 19.5696C202.088 20.3101 202.655 20.8705 203.367 21.2509C204.083 21.6312 204.882 21.8214 205.765 21.8214C206.248 21.8214 206.713 21.7648 207.159 21.6515C207.605 21.5382 208.011 21.3702 208.376 21.1477C208.746 20.9211 209.059 20.6439 209.315 20.3162C209.576 19.9844 209.759 19.604 209.863 19.1751H211.628C211.495 19.8104 211.253 20.3789 210.902 20.8806C210.551 21.3824 210.114 21.8093 209.593 22.1613C209.071 22.5093 208.485 22.7743 207.835 22.9564C207.19 23.1385 206.5 23.2295 205.765 23.2295C204.522 23.2295 203.416 22.9706 202.449 22.4526C201.481 21.9347 200.72 21.1983 200.165 20.2433C199.61 19.2884 199.332 18.1554 199.332 16.8444C199.332 15.5334 199.61 14.4004 200.165 13.4454C200.72 12.4905 201.481 11.7541 202.449 11.2361C203.416 10.7182 204.522 10.4592 205.765 10.4592C206.5 10.4592 207.19 10.5503 207.835 10.7324C208.485 10.9144 209.071 11.1815 209.593 11.5335C210.114 11.8815 210.551 12.3064 210.902 12.8081C211.253 13.3058 211.495 13.8744 211.628 14.5137Z" fill="#1E90FF"/>
<path d="M190.031 17.1115H193.162C194.442 17.1115 195.422 17.3887 196.1 17.943C196.778 18.4974 197.118 19.1994 197.118 20.0491C197.118 20.6075 196.966 21.1154 196.662 21.5726C196.359 22.0258 195.913 22.3879 195.325 22.659C194.736 22.9261 194.015 23.0596 193.162 23.0596H188.579V13.7368H190.258V21.7243H193.162C193.826 21.7243 194.371 21.5746 194.798 21.2752C195.225 20.9758 195.438 20.5914 195.438 20.122C195.438 19.6283 195.225 19.2257 194.798 18.9141C194.371 18.6026 193.826 18.4468 193.162 18.4468H190.031V17.1115Z" fill="#1E90FF"/>
<path d="M177.995 20.6802H179.788C179.826 21.101 180.049 21.4207 180.457 21.6392C180.87 21.8577 181.406 21.9669 182.065 21.9669C182.739 21.9669 183.315 21.8496 183.794 21.6149C184.273 21.3762 184.513 20.9918 184.513 20.4617C184.513 20.1501 184.423 19.879 184.242 19.6484C184.062 19.4137 183.808 19.2316 183.481 19.1021C183.154 18.9726 182.767 18.9079 182.321 18.9079H180.443V17.6211H182.321C182.99 17.6211 183.483 17.4917 183.801 17.2327C184.124 16.9737 184.285 16.65 184.285 16.2616C184.285 15.8448 184.112 15.511 183.766 15.2601C183.419 15.0052 182.928 14.8777 182.293 14.8777C181.652 14.8777 181.119 15.0011 180.692 15.2479C180.265 15.4907 180.04 15.8043 180.016 16.1887H178.251C178.27 15.687 178.451 15.2439 178.792 14.8595C179.134 14.471 179.598 14.1676 180.187 13.9491C180.775 13.7265 181.448 13.6152 182.207 13.6152C182.976 13.6152 183.642 13.7306 184.207 13.9612C184.776 14.1878 185.215 14.4973 185.523 14.8898C185.836 15.2783 185.993 15.7193 185.993 16.213C185.993 16.739 185.82 17.1639 185.473 17.4876C185.127 17.8113 184.693 18.042 184.171 18.1795V18.2766C184.584 18.3009 184.942 18.4142 185.246 18.6165C185.554 18.8148 185.794 19.0758 185.964 19.3995C186.135 19.7192 186.22 20.0732 186.22 20.4617C186.22 21.0282 186.043 21.5218 185.687 21.9426C185.331 22.3594 184.842 22.6831 184.221 22.9138C183.6 23.1404 182.89 23.2537 182.094 23.2537C181.32 23.2537 180.628 23.1464 180.016 22.932C179.404 22.7135 178.918 22.412 178.557 22.0276C178.201 21.6392 178.014 21.19 177.995 20.6802Z" fill="#1E90FF"/>
<path d="M174.002 23.0596V15.0478H171.099C170.444 15.0478 169.929 15.1773 169.555 15.4363C169.18 15.6953 168.992 16.0513 168.992 16.5045C168.992 16.9496 169.161 17.2996 169.498 17.5546C169.839 17.8095 170.306 17.9369 170.899 17.9369H174.429V19.2722H170.899C170.159 19.2722 169.521 19.161 168.985 18.9384C168.449 18.7159 168.037 18.3982 167.747 17.9855C167.458 17.5687 167.313 17.0751 167.313 16.5045C167.313 15.9299 167.465 15.4363 167.769 15.0236C168.072 14.6108 168.506 14.2932 169.071 14.0706C169.64 13.8481 170.316 13.7368 171.099 13.7368H175.596V23.0596H174.002ZM166.716 23.0596L169.818 18.4225H171.639L168.537 23.0596H166.716Z" fill="#1E90FF"/>
<path d="M156.176 23.0596V13.7368H160.644C161.821 13.7368 162.755 13.9634 163.448 14.4166C164.14 14.8698 164.487 15.4687 164.487 16.2132C164.487 16.7797 164.29 17.2187 163.896 17.5303C163.502 17.8378 162.997 18.0462 162.381 18.1554C162.784 18.204 163.175 18.3254 163.555 18.5196C163.939 18.7138 164.257 18.9809 164.508 19.3208C164.759 19.6566 164.885 20.0694 164.885 20.559C164.885 21.0365 164.743 21.4633 164.458 21.8397C164.174 22.216 163.766 22.5134 163.234 22.7319C162.703 22.9504 162.067 23.0596 161.327 23.0596H156.176ZM157.77 21.7486H161.327C161.906 21.7486 162.359 21.6313 162.687 21.3966C163.014 21.1619 163.177 20.8422 163.177 20.4376C163.177 19.9561 163.014 19.5777 162.687 19.3026C162.359 19.0234 161.906 18.8838 161.327 18.8838H157.77V21.7486ZM157.77 17.6456H160.644C161.095 17.6456 161.482 17.593 161.804 17.4878C162.127 17.3785 162.373 17.2248 162.544 17.0265C162.72 16.8242 162.807 16.5855 162.807 16.3103C162.807 15.9178 162.615 15.6103 162.231 15.3877C161.847 15.1611 161.318 15.0478 160.644 15.0478H157.77V17.6456Z" fill="#1E90FF"/>
<path d="M153.552 14.5137H151.788C151.683 14.0807 151.501 13.7004 151.24 13.3726C150.984 13.0449 150.67 12.7697 150.3 12.5472C149.935 12.3206 149.53 12.1506 149.084 12.0373C148.638 11.924 148.173 11.8674 147.689 11.8674C146.807 11.8674 146.008 12.0575 145.291 12.4379C144.58 12.8183 144.013 13.3787 143.591 14.1192C143.173 14.8596 142.965 15.7681 142.965 16.8444C142.965 17.9207 143.173 18.8291 143.591 19.5696C144.013 20.3101 144.58 20.8705 145.291 21.2509C146.008 21.6312 146.807 21.8214 147.689 21.8214C148.173 21.8214 148.638 21.7648 149.084 21.6515C149.53 21.5382 149.935 21.3702 150.3 21.1477C150.67 20.9211 150.984 20.6439 151.24 20.3162C151.501 19.9844 151.683 19.604 151.788 19.1751H153.552C153.419 19.8104 153.177 20.3789 152.826 20.8806C152.475 21.3824 152.039 21.8093 151.517 22.1613C150.995 22.5093 150.41 22.7743 149.76 22.9564C149.115 23.1385 148.424 23.2295 147.689 23.2295C146.446 23.2295 145.341 22.9706 144.373 22.4526C143.406 21.9347 142.644 21.1983 142.089 20.2433C141.534 19.2884 141.257 18.1554 141.257 16.8444C141.257 15.5334 141.534 14.4004 142.089 13.4454C142.644 12.4905 143.406 11.7541 144.373 11.2361C145.341 10.7182 146.446 10.4592 147.689 10.4592C148.424 10.4592 149.115 10.5503 149.76 10.7324C150.41 10.9144 150.995 11.1815 151.517 11.5335C152.039 11.8815 152.475 12.3064 152.826 12.8081C153.177 13.3058 153.419 13.8744 153.552 14.5137Z" fill="#1E90FF"/>
<path d="M129.388 26.5555V13.7366H131.011V15.2176H131.21C131.333 15.0557 131.504 14.8494 131.722 14.5985C131.945 14.3436 132.263 14.117 132.676 13.9187C133.093 13.7164 133.658 13.6152 134.369 13.6152C135.289 13.6152 136.101 13.8115 136.803 14.204C137.505 14.5965 138.053 15.1529 138.446 15.8731C138.84 16.5934 139.037 17.4431 139.037 18.4223C139.037 19.4096 138.84 20.2654 138.446 20.9897C138.053 21.71 137.507 22.2684 136.81 22.6649C136.112 23.0574 135.308 23.2537 134.398 23.2537C133.696 23.2537 133.134 23.1545 132.711 22.9563C132.289 22.7539 131.964 22.5253 131.737 22.2704C131.509 22.0114 131.333 21.797 131.21 21.627H131.068V26.5555H129.388ZM131.039 18.398C131.039 19.1021 131.16 19.7232 131.402 20.2614C131.644 20.7955 131.997 21.2143 132.462 21.5178C132.927 21.8172 133.496 21.9669 134.17 21.9669C134.872 21.9669 135.458 21.8091 135.927 21.4935C136.402 21.1738 136.758 20.7449 136.995 20.2068C137.237 19.6645 137.358 19.0616 137.358 18.398C137.358 17.7425 137.239 17.1518 137.002 16.6257C136.769 16.0957 136.416 15.6769 135.942 15.3693C135.472 15.0578 134.882 14.902 134.17 14.902C133.487 14.902 132.913 15.0497 132.448 15.3451C131.983 15.6364 131.632 16.0451 131.395 16.5711C131.158 17.0931 131.039 17.7021 131.039 18.398Z" fill="#1E90FF"/>
<path d="M118.059 15.0721V13.7368H126.939V15.0721H123.353V23.0596H121.674V15.0721H118.059Z" fill="#1E90FF"/>
<path d="M107.923 23.0596V13.7368H109.603V17.7913H110.713L114.64 13.7368H116.803L112.392 18.2283L116.86 23.0596H114.697L111.111 19.1266H109.603V23.0596H107.923Z" fill="#1E90FF"/>
<path d="M100.844 23.2537C99.7905 23.2537 98.8821 23.0554 98.1184 22.6589C97.3594 22.2583 96.7736 21.6999 96.3609 20.9837C95.9529 20.2634 95.749 19.4258 95.749 18.4709C95.749 17.5159 95.9529 16.6743 96.3609 15.9459C96.7736 15.2135 97.3475 14.643 98.0828 14.2343C98.8228 13.8216 99.6861 13.6152 100.673 13.6152C101.242 13.6152 101.804 13.6962 102.359 13.858C102.914 14.0199 103.419 14.2829 103.875 14.6471C104.33 15.0072 104.693 15.4847 104.963 16.0795C105.234 16.6743 105.369 17.4067 105.369 18.2766V18.8836H96.9443V17.6454H103.661C103.661 17.1194 103.538 16.65 103.291 16.2373C103.049 15.8245 102.703 15.4988 102.252 15.2601C101.806 15.0213 101.28 14.902 100.673 14.902C100.004 14.902 99.4252 15.0436 98.9366 15.3268C98.4528 15.606 98.0804 15.9702 97.8195 16.4194C97.5586 16.8685 97.4282 17.35 97.4282 17.8639V18.6894C97.4282 19.3934 97.5705 19.9903 97.8551 20.4799C98.1445 20.9655 98.5453 21.3357 99.0576 21.5906C99.5699 21.8415 100.165 21.9669 100.844 21.9669C101.285 21.9669 101.683 21.9143 102.039 21.8091C102.399 21.6999 102.71 21.538 102.971 21.3236C103.232 21.1051 103.434 20.8339 103.576 20.5102L105.198 20.8987C105.027 21.3681 104.74 21.7808 104.337 22.1369C103.934 22.4889 103.436 22.7641 102.843 22.9623C102.25 23.1566 101.584 23.2537 100.844 23.2537Z" fill="#1E90FF"/>
<path d="M84.5992 23.0596V13.7368H93.1946V23.0596H91.5153V15.0721H86.2785V23.0596H84.5992Z" fill="#1E90FF"/>
<path d="M81.9755 14.5137H80.2109C80.1065 14.0807 79.9239 13.7004 79.663 13.3726C79.4068 13.0449 79.0938 12.7697 78.7238 12.5472C78.3585 12.3206 77.9529 12.1506 77.507 12.0373C77.0612 11.924 76.5963 11.8674 76.1124 11.8674C75.2301 11.8674 74.4308 12.0575 73.7146 12.4379C73.003 12.8183 72.4362 13.3787 72.014 14.1192C71.5966 14.8596 71.3879 15.7681 71.3879 16.8444C71.3879 17.9207 71.5966 18.8291 72.014 19.5696C72.4362 20.3101 73.003 20.8705 73.7146 21.2509C74.4308 21.6312 75.2301 21.8214 76.1124 21.8214C76.5963 21.8214 77.0612 21.7648 77.507 21.6515C77.9529 21.5382 78.3585 21.3702 78.7238 21.1477C79.0938 20.9211 79.4068 20.6439 79.663 20.3162C79.9239 19.9844 80.1065 19.604 80.2109 19.1751H81.9755C81.8427 19.8104 81.6007 20.3789 81.2497 20.8806C80.8987 21.3824 80.4623 21.8093 79.9405 22.1613C79.4187 22.5093 78.8329 22.7743 78.183 22.9564C77.5379 23.1385 76.8477 23.2295 76.1124 23.2295C74.8696 23.2295 73.7644 22.9706 72.7967 22.4526C71.829 21.9347 71.0677 21.1983 70.5127 20.2433C69.9577 19.2884 69.6802 18.1554 69.6802 16.8444C69.6802 15.5334 69.9577 14.4004 70.5127 13.4454C71.0677 12.4905 71.829 11.7541 72.7967 11.2361C73.7644 10.7182 74.8696 10.4592 76.1124 10.4592C76.8477 10.4592 77.5379 10.5503 78.183 10.7324C78.8329 10.9144 79.4187 11.1815 79.9405 11.5335C80.4623 11.8815 80.8987 12.3064 81.2497 12.8081C81.6007 13.3058 81.8427 13.8744 81.9755 14.5137Z" fill="#1E90FF"/>
<path d="M248.834 39.0423L251.349 35.5984H252.273V40.0511H251.471V36.6072L248.97 40.0511H248.032V35.5984H248.834V39.0423Z" fill="#1E90FF"/>
<path d="M242.69 38.9148H243.546C243.565 39.1158 243.671 39.2685 243.866 39.3729C244.063 39.4772 244.319 39.5294 244.634 39.5294C244.956 39.5294 245.231 39.4734 245.46 39.3613C245.688 39.2472 245.803 39.0636 245.803 38.8105C245.803 38.6617 245.76 38.5322 245.674 38.422C245.588 38.3099 245.466 38.223 245.31 38.1611C245.154 38.0993 244.969 38.0684 244.756 38.0684H243.859V37.4538H244.756C245.076 37.4538 245.311 37.3919 245.463 37.2683C245.617 37.1446 245.694 36.99 245.694 36.8044C245.694 36.6054 245.611 36.4459 245.446 36.3261C245.281 36.2044 245.046 36.1435 244.743 36.1435C244.437 36.1435 244.182 36.2024 243.978 36.3203C243.774 36.4363 243.666 36.5861 243.655 36.7697H242.812C242.821 36.53 242.907 36.3184 243.071 36.1348C243.234 35.9493 243.456 35.8043 243.737 35.7C244.018 35.5937 244.339 35.5405 244.702 35.5405C245.069 35.5405 245.387 35.5956 245.657 35.7058C245.929 35.814 246.138 35.9618 246.285 36.1493C246.435 36.3348 246.51 36.5455 246.51 36.7813C246.51 37.0325 246.427 37.2354 246.262 37.39C246.096 37.5446 245.889 37.6548 245.64 37.7205V37.7669C245.837 37.7785 246.008 37.8326 246.153 37.9292C246.3 38.0239 246.415 38.1486 246.496 38.3032C246.578 38.4558 246.619 38.6249 246.619 38.8105C246.619 39.081 246.534 39.3168 246.364 39.5178C246.194 39.7169 245.96 39.8715 245.664 39.9816C245.367 40.0898 245.028 40.144 244.647 40.144C244.278 40.144 243.947 40.0927 243.655 39.9903C243.363 39.886 243.131 39.742 242.958 39.5584C242.789 39.3729 242.699 39.1583 242.69 38.9148Z" fill="#1E90FF"/>
<path d="M240.496 40.0511V36.2245H239.109C238.796 36.2245 238.551 36.2864 238.372 36.4101C238.193 36.5338 238.103 36.7038 238.103 36.9203C238.103 37.1329 238.184 37.3 238.344 37.4218C238.508 37.5435 238.731 37.6044 239.014 37.6044H240.699V38.2422H239.014C238.66 38.2422 238.356 38.189 238.1 38.0827C237.844 37.9764 237.647 37.8247 237.508 37.6276C237.37 37.4286 237.301 37.1928 237.301 36.9203C237.301 36.6459 237.374 36.4101 237.519 36.213C237.664 36.0158 237.871 35.8641 238.14 35.7578C238.412 35.6515 238.735 35.5984 239.109 35.5984H241.257V40.0511H240.496ZM237.016 40.0511L238.497 37.8363H239.367L237.886 40.0511H237.016Z" fill="#1E90FF"/>
<path d="M231.695 40.0511V35.5984H233.829C234.391 35.5984 234.837 35.7066 235.168 35.9231C235.499 36.1395 235.664 36.4255 235.664 36.7811C235.664 37.0517 235.57 37.2614 235.382 37.4102C235.194 37.5571 234.953 37.6566 234.658 37.7088C234.851 37.732 235.038 37.7899 235.219 37.8827C235.402 37.9755 235.554 38.103 235.674 38.2654C235.794 38.4258 235.854 38.6229 235.854 38.8567C235.854 39.0848 235.786 39.2887 235.65 39.4684C235.514 39.6481 235.32 39.7902 235.066 39.8945C234.812 39.9989 234.509 40.0511 234.155 40.0511H231.695ZM232.456 39.4249H234.155C234.432 39.4249 234.648 39.3689 234.804 39.2568C234.961 39.1447 235.039 38.992 235.039 38.7988C235.039 38.5688 234.961 38.3881 234.804 38.2567C234.648 38.1233 234.432 38.0566 234.155 38.0566H232.456V39.4249ZM232.456 37.4653H233.829C234.044 37.4653 234.229 37.4401 234.383 37.3899C234.537 37.3377 234.655 37.2643 234.736 37.1696C234.82 37.073 234.862 36.9589 234.862 36.8275C234.862 36.6401 234.77 36.4932 234.587 36.3869C234.403 36.2787 234.151 36.2245 233.829 36.2245H232.456V37.4653Z" fill="#1E90FF"/>
<path d="M228.183 40.144C227.693 40.144 227.272 40.0454 226.918 39.8483C226.565 39.6511 226.293 39.3796 226.103 39.0337C225.912 38.6878 225.817 38.2925 225.817 37.848C225.817 37.3958 225.915 36.9967 226.11 36.6508C226.307 36.3029 226.581 36.0314 226.932 35.8362C227.285 35.6391 227.698 35.5405 228.169 35.5405C228.536 35.5405 228.867 35.5985 229.161 35.7145C229.456 35.8304 229.697 35.9928 229.885 36.2015C230.073 36.4102 230.19 36.6537 230.235 36.932H229.433C229.372 36.7291 229.236 36.5493 229.025 36.3928C228.817 36.2343 228.536 36.1551 228.183 36.1551C227.87 36.1551 227.596 36.2247 227.36 36.3638C227.127 36.501 226.944 36.6953 226.813 36.9465C226.684 37.1958 226.619 37.4886 226.619 37.8249C226.619 38.1689 226.683 38.4684 226.81 38.7235C226.939 38.9786 227.12 39.1767 227.353 39.3178C227.589 39.4589 227.865 39.5294 228.183 39.5294C228.391 39.5294 228.58 39.4985 228.75 39.4366C228.92 39.3748 229.064 39.2859 229.182 39.1699C229.299 39.054 229.383 38.9148 229.433 38.7525H230.235C230.19 39.0153 230.078 39.2521 229.899 39.4627C229.722 39.6714 229.487 39.8376 229.195 39.9613C228.905 40.0831 228.568 40.144 228.183 40.144Z" fill="#1E90FF"/>
<path d="M217.888 39.0424L220.403 35.5985H221.327V40.0512H220.525V36.6073L218.024 40.0512H217.086V35.5985H217.888V39.0424ZM219.873 34.1143H220.62C220.62 34.4273 220.494 34.6834 220.24 34.8825C219.986 35.0815 219.642 35.181 219.207 35.181C218.779 35.181 218.438 35.0815 218.184 34.8825C217.932 34.6834 217.807 34.4273 217.807 34.1143H218.554C218.554 34.265 218.603 34.3974 218.7 34.5114C218.8 34.6254 218.969 34.6824 219.207 34.6824C219.445 34.6824 219.615 34.6254 219.717 34.5114C219.821 34.3974 219.873 34.265 219.873 34.1143Z" fill="#1E90FF"/>
<path d="M213.418 40.144C212.915 40.144 212.481 40.0493 212.116 39.8599C211.754 39.6685 211.474 39.4018 211.277 39.0598C211.082 38.7158 210.984 38.3157 210.984 37.8596C210.984 37.4035 211.082 37.0016 211.277 36.6537C211.474 36.3039 211.748 36.0314 212.099 35.8362C212.453 35.6391 212.865 35.5405 213.336 35.5405C213.608 35.5405 213.876 35.5792 214.142 35.6565C214.407 35.7338 214.648 35.8594 214.865 36.0333C215.083 36.2053 215.256 36.4334 215.385 36.7175C215.514 37.0016 215.579 37.3514 215.579 37.7669V38.0568H211.555V37.4654H214.763C214.763 37.2142 214.705 36.99 214.587 36.7928C214.471 36.5957 214.306 36.4401 214.091 36.3261C213.878 36.2121 213.626 36.1551 213.336 36.1551C213.017 36.1551 212.74 36.2227 212.507 36.358C212.276 36.4914 212.098 36.6653 211.973 36.8798C211.849 37.0943 211.786 37.3243 211.786 37.5697V37.964C211.786 38.3003 211.854 38.5853 211.99 38.8192C212.129 39.0511 212.32 39.2279 212.565 39.3497C212.809 39.4695 213.094 39.5294 213.418 39.5294C213.628 39.5294 213.819 39.5043 213.989 39.454C214.161 39.4018 214.309 39.3245 214.434 39.2221C214.558 39.1178 214.655 38.9883 214.723 38.8337L215.497 39.0192C215.416 39.2434 215.279 39.4405 215.086 39.6106C214.894 39.7787 214.656 39.9101 214.373 40.0048C214.089 40.0976 213.771 40.144 213.418 40.144Z" fill="#1E90FF"/>
<path d="M204.835 40.0511V39.4133H205.025C205.182 39.4133 205.312 39.3872 205.416 39.3351C205.52 39.2809 205.604 39.1872 205.668 39.0539C205.733 38.9186 205.783 38.7311 205.817 38.4915C205.854 38.2499 205.88 37.9426 205.895 37.5696L205.991 35.5984H209.471V40.0511H208.669V36.2361H206.752L206.67 37.8247C206.652 38.19 206.614 38.5118 206.555 38.7901C206.498 39.0664 206.411 39.2983 206.293 39.4858C206.177 39.6733 206.023 39.8143 205.831 39.909C205.638 40.0037 205.397 40.0511 205.107 40.0511H204.835Z" fill="#1E90FF"/>
<path d="M201.629 40.144C201.126 40.144 200.692 40.0493 200.327 39.8599C199.965 39.6685 199.685 39.4018 199.488 39.0598C199.293 38.7158 199.196 38.3157 199.196 37.8596C199.196 37.4035 199.293 37.0016 199.488 36.6537C199.685 36.3039 199.959 36.0314 200.31 35.8362C200.664 35.6391 201.076 35.5405 201.547 35.5405C201.819 35.5405 202.088 35.5792 202.353 35.6565C202.618 35.7338 202.859 35.8594 203.077 36.0333C203.294 36.2053 203.467 36.4334 203.597 36.7175C203.726 37.0016 203.79 37.3514 203.79 37.7669V38.0568H199.767V37.4654H202.975C202.975 37.2142 202.916 36.99 202.798 36.7928C202.682 36.5957 202.517 36.4401 202.302 36.3261C202.089 36.2121 201.837 36.1551 201.547 36.1551C201.228 36.1551 200.951 36.2227 200.718 36.358C200.487 36.4914 200.309 36.6653 200.185 36.8798C200.06 37.0943 199.998 37.3243 199.998 37.5697V37.964C199.998 38.3003 200.066 38.5853 200.202 38.8192C200.34 39.0511 200.531 39.2279 200.776 39.3497C201.021 39.4695 201.305 39.5294 201.629 39.5294C201.84 39.5294 202.03 39.5043 202.2 39.454C202.372 39.4018 202.52 39.3245 202.645 39.2221C202.77 39.1178 202.866 38.9883 202.934 38.8337L203.709 39.0192C203.627 39.2434 203.49 39.4405 203.297 39.6106C203.105 39.7787 202.867 39.9101 202.584 40.0048C202.301 40.0976 201.982 40.144 201.629 40.144Z" fill="#1E90FF"/>
<path d="M197.383 33.9285L197.79 34.3459C197.632 34.4773 197.448 34.5691 197.24 34.6213C197.032 34.6735 196.796 34.7054 196.533 34.717C196.27 34.7286 195.978 34.7402 195.656 34.7518C195.294 34.7633 194.994 34.8387 194.756 34.9779C194.518 35.117 194.334 35.318 194.205 35.5808C194.076 35.8437 193.993 36.1664 193.957 36.5491H194.025C194.202 36.2708 194.446 36.0659 194.759 35.9345C195.072 35.8031 195.407 35.7374 195.765 35.7374C196.173 35.7374 196.54 35.8185 196.866 35.9809C197.192 36.1432 197.451 36.3838 197.641 36.7027C197.831 37.0216 197.926 37.4149 197.926 37.8825C197.926 38.3483 197.829 38.7503 197.634 39.0885C197.442 39.4267 197.171 39.6876 196.822 39.8712C196.475 40.0528 196.069 40.1437 195.602 40.1437C195.135 40.1437 194.726 40.0499 194.375 39.8625C194.024 39.6731 193.751 39.3929 193.556 39.0218C193.361 38.6488 193.264 38.1879 193.264 37.639V37.1636C193.264 36.1722 193.461 35.4204 193.855 34.9083C194.252 34.3962 194.847 34.1314 195.643 34.114C195.924 34.1063 196.174 34.1043 196.394 34.1082C196.614 34.1121 196.805 34.1034 196.968 34.0821C197.131 34.0608 197.269 34.0096 197.383 33.9285ZM195.602 39.5291C195.917 39.5291 196.188 39.4615 196.414 39.3262C196.643 39.1909 196.819 39.0006 196.941 38.7551C197.063 38.5077 197.124 38.2169 197.124 37.8825C197.124 37.5579 197.062 37.2815 196.937 37.0535C196.815 36.8254 196.64 36.6515 196.411 36.5317C196.182 36.4118 195.908 36.3519 195.588 36.3519C195.355 36.3519 195.145 36.3858 194.96 36.4534C194.774 36.521 194.615 36.6206 194.484 36.752C194.352 36.8834 194.251 37.0438 194.178 37.2332C194.108 37.4226 194.07 37.639 194.066 37.8825C194.066 38.3812 194.203 38.7802 194.477 39.0798C194.751 39.3793 195.126 39.5291 195.602 39.5291Z" fill="#1E90FF"/>
<path d="M189.365 40.1556C189.034 40.1556 188.734 40.1024 188.465 39.9961C188.195 39.8879 187.981 39.7323 187.822 39.5294C187.664 39.3245 187.584 39.0772 187.584 38.7873C187.584 38.5322 187.643 38.3254 187.761 38.1669C187.879 38.0065 188.036 37.8809 188.233 37.7901C188.431 37.6992 188.648 37.6316 188.886 37.5871C189.126 37.5408 189.367 37.504 189.61 37.477C189.927 37.4422 190.184 37.4161 190.381 37.3987C190.581 37.3794 190.726 37.3475 190.816 37.3031C190.909 37.2586 190.956 37.1813 190.956 37.0711V37.0479C190.956 36.7619 190.864 36.5397 190.68 36.3812C190.499 36.2227 190.224 36.1435 189.854 36.1435C189.472 36.1435 189.171 36.215 188.954 36.358C188.736 36.501 188.583 36.6537 188.495 36.816L187.734 36.5841C187.87 36.3136 188.051 36.1029 188.278 35.9522C188.506 35.7995 188.756 35.6932 189.025 35.6333C189.297 35.5714 189.564 35.5405 189.827 35.5405C189.995 35.5405 190.188 35.5579 190.405 35.5927C190.625 35.6256 190.837 35.6942 191.04 35.7985C191.247 35.9029 191.418 36.0604 191.554 36.271C191.69 36.4817 191.758 36.7639 191.758 37.1175V40.0512H190.956V39.4482H190.915C190.86 39.5449 190.77 39.6482 190.643 39.7584C190.516 39.8686 190.347 39.9623 190.137 40.0396C189.926 40.1169 189.669 40.1556 189.365 40.1556ZM189.487 39.541C189.805 39.541 190.072 39.4878 190.289 39.3816C190.509 39.2753 190.675 39.138 190.786 38.9699C190.899 38.8018 190.956 38.6249 190.956 38.4394V37.8133C190.922 37.848 190.847 37.8799 190.731 37.9089C190.618 37.936 190.487 37.9601 190.337 37.9814C190.19 38.0007 190.046 38.0181 189.905 38.0336C189.767 38.0471 189.655 38.0587 189.569 38.0684C189.361 38.0915 189.166 38.1292 188.984 38.1814C188.805 38.2317 188.661 38.308 188.549 38.4104C188.441 38.5109 188.386 38.6481 188.386 38.8221C188.386 39.0598 188.489 39.2395 188.696 39.3613C188.904 39.4811 189.168 39.541 189.487 39.541Z" fill="#1E90FF"/>
<path d="M182.402 40.0511V35.5984H183.204V37.5348H183.734L185.61 35.5984H186.643L184.536 37.7436L186.67 40.0511H185.637L183.924 38.1726H183.204V40.0511H182.402Z" fill="#1E90FF"/>
<path d="M170.894 40.0511L173.015 37.7899L170.922 35.5984H171.873L173.613 37.5001H174.048V35.5984H174.85V37.5001H175.271L177.011 35.5984H177.963L175.883 37.7899L177.99 40.0511H177.025L175.258 38.1378H174.85V40.0511H174.048V38.1378H173.64L171.859 40.0511H170.894Z" fill="#1E90FF"/>
<path d="M167.077 40.1556C166.746 40.1556 166.446 40.1024 166.177 39.9961C165.907 39.8879 165.693 39.7323 165.534 39.5294C165.376 39.3245 165.296 39.0772 165.296 38.7873C165.296 38.5322 165.355 38.3254 165.473 38.1669C165.591 38.0065 165.748 37.8809 165.946 37.7901C166.143 37.6992 166.36 37.6316 166.598 37.5871C166.838 37.5408 167.079 37.504 167.322 37.477C167.639 37.4422 167.896 37.4161 168.093 37.3987C168.293 37.3794 168.438 37.3475 168.528 37.3031C168.621 37.2586 168.668 37.1813 168.668 37.0711V37.0479C168.668 36.7619 168.576 36.5397 168.392 36.3812C168.211 36.2227 167.936 36.1435 167.567 36.1435C167.184 36.1435 166.883 36.215 166.666 36.358C166.448 36.501 166.296 36.6537 166.207 36.816L165.446 36.5841C165.582 36.3136 165.763 36.1029 165.99 35.9522C166.219 35.7995 166.468 35.6932 166.737 35.6333C167.009 35.5714 167.277 35.5405 167.539 35.5405C167.707 35.5405 167.9 35.5579 168.117 35.5927C168.337 35.6256 168.549 35.6942 168.753 35.7985C168.959 35.9029 169.13 36.0604 169.266 36.271C169.402 36.4817 169.47 36.7639 169.47 37.1175V40.0512H168.668V39.4482H168.627C168.572 39.5449 168.482 39.6482 168.355 39.7584C168.228 39.8686 168.059 39.9623 167.849 40.0396C167.638 40.1169 167.381 40.1556 167.077 40.1556ZM167.2 39.541C167.517 39.541 167.784 39.4878 168.002 39.3816C168.221 39.2753 168.387 39.138 168.498 38.9699C168.611 38.8018 168.668 38.6249 168.668 38.4394V37.8133C168.634 37.848 168.559 37.8799 168.443 37.9089C168.33 37.936 168.199 37.9601 168.049 37.9814C167.902 38.0007 167.758 38.0181 167.618 38.0336C167.479 38.0471 167.367 38.0587 167.281 38.0684C167.073 38.0915 166.878 38.1292 166.697 38.1814C166.518 38.2317 166.373 38.308 166.262 38.4104C166.153 38.5109 166.098 38.6481 166.098 38.8221C166.098 39.0598 166.202 39.2395 166.408 39.3613C166.616 39.4811 166.88 39.541 167.2 39.541Z" fill="#1E90FF"/>
<path d="M160.114 36.2361V35.5984H164.355V36.2361H162.642V40.0511H161.84V36.2361H160.114Z" fill="#1E90FF"/>
<path d="M158.461 37.5117V38.1494H155.579V37.5117H158.461ZM155.769 35.5984V40.0511H154.967V35.5984H155.769ZM159.073 35.5984V40.0511H158.27V35.5984H159.073Z" fill="#1E90FF"/>
<path d="M151.091 40.144C150.619 40.144 150.206 40.0483 149.85 39.857C149.497 39.6656 149.22 39.398 149.021 39.054C148.824 38.71 148.725 38.308 148.725 37.848C148.725 37.3842 148.824 36.9793 149.021 36.6334C149.22 36.2875 149.497 36.0188 149.85 35.8275C150.206 35.6362 150.619 35.5405 151.091 35.5405C151.562 35.5405 151.974 35.6362 152.328 35.8275C152.683 36.0188 152.96 36.2875 153.157 36.6334C153.356 36.9793 153.456 37.3842 153.456 37.848C153.456 38.308 153.356 38.71 153.157 39.054C152.96 39.398 152.683 39.6656 152.328 39.857C151.974 40.0483 151.562 40.144 151.091 40.144ZM151.091 39.5294C151.449 39.5294 151.743 39.4511 151.974 39.2946C152.205 39.138 152.376 38.9322 152.487 38.6771C152.598 38.422 152.654 38.1457 152.654 37.848C152.654 37.5504 152.598 37.2731 152.487 37.0161C152.376 36.759 152.205 36.5513 151.974 36.3928C151.743 36.2343 151.449 36.1551 151.091 36.1551C150.733 36.1551 150.438 36.2343 150.207 36.3928C149.976 36.5513 149.805 36.759 149.694 37.0161C149.583 37.2731 149.527 37.5504 149.527 37.848C149.527 38.1457 149.583 38.422 149.694 38.6771C149.805 38.9322 149.976 39.138 150.207 39.2946C150.438 39.4511 150.733 39.5294 151.091 39.5294Z" fill="#1E90FF"/>
<path d="M144.36 39.1234L146.182 35.5984H146.943L144.686 40.0511H144.034L141.818 35.5984H142.566L144.36 39.1234ZM142.308 35.5984V40.0511H141.506V35.5984H142.308ZM146.413 40.0511V35.5984H147.215V40.0511H146.413Z" fill="#1E90FF"/>
<path d="M133.332 39.0423L135.847 35.5984H136.771V40.0511H135.969V36.6072L133.468 40.0511H132.53V35.5984H133.332V39.0423Z" fill="#1E90FF"/>
<path d="M125.408 40.1556C125.077 40.1556 124.777 40.1024 124.507 39.9961C124.238 39.8879 124.024 39.7323 123.865 39.5294C123.706 39.3245 123.627 39.0772 123.627 38.7873C123.627 38.5322 123.686 38.3254 123.804 38.1669C123.922 38.0065 124.079 37.8809 124.276 37.7901C124.473 37.6992 124.691 37.6316 124.929 37.5871C125.169 37.5408 125.41 37.504 125.653 37.477C125.97 37.4422 126.227 37.4161 126.424 37.3987C126.623 37.3794 126.768 37.3475 126.859 37.3031C126.952 37.2586 126.998 37.1813 126.998 37.0711V37.0479C126.998 36.7619 126.906 36.5397 126.723 36.3812C126.542 36.2227 126.266 36.1435 125.897 36.1435C125.514 36.1435 125.214 36.215 124.997 36.358C124.779 36.501 124.626 36.6537 124.538 36.816L123.777 36.5841C123.913 36.3136 124.094 36.1029 124.32 35.9522C124.549 35.7995 124.798 35.6932 125.068 35.6333C125.34 35.5714 125.607 35.5405 125.87 35.5405C126.038 35.5405 126.23 35.5579 126.448 35.5927C126.667 35.6256 126.879 35.6942 127.083 35.7985C127.289 35.9029 127.46 36.0604 127.596 36.271C127.732 36.4817 127.8 36.7639 127.8 37.1175V40.0512H126.998V39.4482H126.957C126.903 39.5449 126.812 39.6482 126.686 39.7584C126.559 39.8686 126.39 39.9623 126.179 40.0396C125.969 40.1169 125.711 40.1556 125.408 40.1556ZM125.53 39.541C125.847 39.541 126.115 39.4878 126.332 39.3816C126.552 39.2753 126.717 39.138 126.828 38.9699C126.942 38.8018 126.998 38.6249 126.998 38.4394V37.8133C126.964 37.848 126.89 37.8799 126.774 37.9089C126.661 37.936 126.529 37.9601 126.38 37.9814C126.232 38.0007 126.089 38.0181 125.948 38.0336C125.81 38.0471 125.698 38.0587 125.612 38.0684C125.403 38.0915 125.208 38.1292 125.027 38.1814C124.848 38.2317 124.703 38.308 124.592 38.4104C124.483 38.5109 124.429 38.6481 124.429 38.8221C124.429 39.0598 124.532 39.2395 124.738 39.3613C124.947 39.4811 125.211 39.541 125.53 39.541Z" fill="#1E90FF"/>
<path d="M118.445 40.0511V35.5984H119.247V37.5348H119.777L121.653 35.5984H122.686L120.579 37.7436L122.713 40.0511H121.68L119.967 38.1726H119.247V40.0511H118.445Z" fill="#1E90FF"/>
<path d="M111.628 41.3266V39.4133H112.063C112.17 39.3186 112.262 39.2162 112.339 39.106C112.416 38.9959 112.483 38.8654 112.539 38.7147C112.598 38.562 112.648 38.3765 112.689 38.1581C112.729 37.9378 112.766 37.6721 112.797 37.3609L112.974 35.5984H116.291V39.4133H117.093V41.3266H116.291V40.0511H112.43V41.3266H111.628ZM112.974 39.4133H115.489V36.2361H113.722L113.586 37.3609C113.529 37.8267 113.459 38.2335 113.375 38.5813C113.291 38.9292 113.158 39.2065 112.974 39.4133Z" fill="#1E90FF"/>
<path d="M108.042 40.1556C107.712 40.1556 107.411 40.1024 107.142 39.9961C106.872 39.8879 106.658 39.7323 106.499 39.5294C106.341 39.3245 106.262 39.0772 106.262 38.7873C106.262 38.5322 106.321 38.3254 106.438 38.1669C106.556 38.0065 106.714 37.8809 106.911 37.7901C107.108 37.6992 107.325 37.6316 107.563 37.5871C107.803 37.5408 108.045 37.504 108.287 37.477C108.604 37.4422 108.861 37.4161 109.058 37.3987C109.258 37.3794 109.403 37.3475 109.493 37.3031C109.586 37.2586 109.633 37.1813 109.633 37.0711V37.0479C109.633 36.7619 109.541 36.5397 109.358 36.3812C109.176 36.2227 108.901 36.1435 108.532 36.1435C108.149 36.1435 107.849 36.215 107.631 36.358C107.414 36.501 107.261 36.6537 107.172 36.816L106.411 36.5841C106.547 36.3136 106.728 36.1029 106.955 35.9522C107.184 35.7995 107.433 35.6932 107.703 35.6333C107.974 35.5714 108.242 35.5405 108.505 35.5405C108.672 35.5405 108.865 35.5579 109.082 35.5927C109.302 35.6256 109.514 35.6942 109.718 35.7985C109.924 35.9029 110.095 36.0604 110.231 36.271C110.367 36.4817 110.435 36.7639 110.435 37.1175V40.0512H109.633V39.4482H109.592C109.538 39.5449 109.447 39.6482 109.32 39.7584C109.193 39.8686 109.024 39.9623 108.814 40.0396C108.603 40.1169 108.346 40.1556 108.042 40.1556ZM108.165 39.541C108.482 39.541 108.749 39.4878 108.967 39.3816C109.186 39.2753 109.352 39.138 109.463 38.9699C109.576 38.8018 109.633 38.6249 109.633 38.4394V37.8133C109.599 37.848 109.524 37.8799 109.408 37.9089C109.295 37.936 109.164 37.9601 109.014 37.9814C108.867 38.0007 108.723 38.0181 108.583 38.0336C108.444 38.0471 108.332 38.0587 108.246 38.0684C108.038 38.0915 107.843 38.1292 107.662 38.1814C107.483 38.2317 107.338 38.308 107.227 38.4104C107.118 38.5109 107.064 38.6481 107.064 38.8221C107.064 39.0598 107.167 39.2395 107.373 39.3613C107.581 39.4811 107.845 39.541 108.165 39.541Z" fill="#1E90FF"/>
<path d="M100.112 40.0511V39.4133H100.303C100.459 39.4133 100.589 39.3872 100.693 39.3351C100.798 39.2809 100.881 39.1872 100.945 39.0539C101.011 38.9186 101.06 38.7311 101.094 38.4915C101.131 38.2499 101.157 37.9426 101.173 37.5696L101.268 35.5984H104.748V40.0511H103.946V36.2361H102.029L101.947 37.8247C101.929 38.19 101.891 38.5118 101.832 38.7901C101.775 39.0664 101.688 39.2983 101.57 39.4858C101.455 39.6733 101.301 39.8143 101.108 39.909C100.915 40.0037 100.674 40.0511 100.384 40.0511H100.112Z" fill="#1E90FF"/>
<path d="M95.1473 40.0511V35.5984H95.9494V37.5348H96.4795L98.3554 35.5984H99.3885L97.2815 37.7436L99.4157 40.0511H98.3826L96.6698 38.1726H95.9494V40.0511H95.1473Z" fill="#1E90FF"/>
<path d="M91.2707 40.144C90.7995 40.144 90.386 40.0483 90.0303 39.857C89.6769 39.6656 89.4005 39.398 89.2011 39.054C89.004 38.71 88.9055 38.308 88.9055 37.848C88.9055 37.3842 89.004 36.9793 89.2011 36.6334C89.4005 36.2875 89.6769 36.0188 90.0303 35.8275C90.386 35.6362 90.7995 35.5405 91.2707 35.5405C91.742 35.5405 92.1543 35.6362 92.5077 35.8275C92.8634 36.0188 93.1398 36.2875 93.3369 36.6334C93.5363 36.9793 93.636 37.3842 93.636 37.848C93.636 38.308 93.5363 38.71 93.3369 39.054C93.1398 39.398 92.8634 39.6656 92.5077 39.857C92.1543 40.0483 91.742 40.144 91.2707 40.144ZM91.2707 39.5294C91.6287 39.5294 91.9232 39.4511 92.1543 39.2946C92.3854 39.138 92.5564 38.9322 92.6675 38.6771C92.7785 38.422 92.834 38.1457 92.834 37.848C92.834 37.5504 92.7785 37.2731 92.6675 37.0161C92.5564 36.759 92.3854 36.5513 92.1543 36.3928C91.9232 36.2343 91.6287 36.1551 91.2707 36.1551C90.9128 36.1551 90.6182 36.2343 90.3871 36.3928C90.1561 36.5513 89.985 36.759 89.874 37.0161C89.763 37.2731 89.7075 37.5504 89.7075 37.848C89.7075 38.1457 89.763 38.422 89.874 38.6771C89.985 38.9322 90.1561 39.138 90.3871 39.2946C90.6182 39.4511 90.9128 39.5294 91.2707 39.5294Z" fill="#1E90FF"/>
<path d="M83.0314 41.721V35.5985H83.8063V36.3058H83.9014C83.9603 36.2285 84.0419 36.13 84.1461 36.0101C84.2526 35.8884 84.4044 35.7802 84.6015 35.6855C84.8009 35.5888 85.0705 35.5405 85.4103 35.5405C85.8498 35.5405 86.2372 35.6343 86.5725 35.8217C86.9078 36.0092 87.1695 36.2749 87.3576 36.6189C87.5456 36.9629 87.6396 37.3688 87.6396 37.8364C87.6396 38.308 87.5456 38.7167 87.3576 39.0627C87.1695 39.4067 86.909 39.6734 86.5759 39.8628C86.2429 40.0502 85.8589 40.144 85.4239 40.144C85.0886 40.144 84.8201 40.0966 84.6185 40.0019C84.4168 39.9053 84.2616 39.7961 84.1529 39.6743C84.0441 39.5507 83.9603 39.4482 83.9014 39.3671H83.8334V41.721H83.0314ZM83.8199 37.8249C83.8199 38.1611 83.8776 38.4578 83.9932 38.7148C84.1087 38.9699 84.2775 39.1699 84.4995 39.3149C84.7216 39.4579 84.9934 39.5294 85.3151 39.5294C85.6504 39.5294 85.9302 39.454 86.1545 39.3033C86.3811 39.1506 86.551 38.9458 86.6643 38.6887C86.7798 38.4298 86.8376 38.1418 86.8376 37.8249C86.8376 37.5118 86.781 37.2296 86.6677 36.9784C86.5567 36.7252 86.3879 36.5252 86.1613 36.3783C85.937 36.2295 85.655 36.1551 85.3151 36.1551C84.9889 36.1551 84.7148 36.2256 84.4927 36.3667C84.2707 36.5059 84.1031 36.701 83.9898 36.9523C83.8765 37.2016 83.8199 37.4924 83.8199 37.8249Z" fill="#1E90FF"/>
<path d="M81.153 34.1143V40.0512H80.3102V34.752H76.8031V40.0512H75.9603V34.1143H81.153Z" fill="#1E90FF"/>
<path d="M39.4754 4.59184L53.6806 16.5816L59.0637 14.5408L41.8679 0H15.5509L0 14.7959V35.9694L16.4481 50H42.167L58.1665 35.0765L53.0825 33.1633L39.9938 45.2806H18.7579L5.38302 33.8716V16.4541L18.1741 4.59184H39.4754Z" fill="#1E90FF"/>
<path d="M49.4939 17.8571L44.4099 19.6429L35.5877 12.2449H22.5788L14.2052 20.0255V30.2296L23.1769 37.7551H36.3354L44.4099 30.2296L49.4939 32.0153L38.7278 42.3469H21.0835L8.82217 32.0153V18.3673L20.1863 7.65306H37.8306L49.4939 17.8571Z" fill="#1E90FF"/>
<path d="M40.5222 20.9184L35.5877 22.7041L32.1486 19.7704H26.7656L23.4759 22.8316V27.8061L26.4665 30.2296H32.1486L35.2887 27.1684L40.3726 28.9541L34.3915 34.5663H24.2236L18.392 29.3367V21.1735L24.6722 15.4337H34.0924L40.5222 20.9184Z" fill="#1E90FF"/>
</svg>
