<svg width="40" height="44" viewBox="0 0 40 44" fill="none" xmlns="http://www.w3.org/2000/svg">
<path d="M21.6667 14.6666C22.9927 14.6666 24.2645 15.2461 25.2022 16.2775C26.1399 17.309 26.6667 18.7079 26.6667 20.1666C26.6667 20.6528 26.8423 21.1192 27.1548 21.463C27.4674 21.8068 27.8913 21.9999 28.3333 21.9999C28.7754 21.9999 29.1993 21.8068 29.5118 21.463C29.8244 21.1192 30 20.6528 30 20.1666C30 17.7355 29.122 15.4039 27.5592 13.6848C25.9964 11.9657 23.8768 10.9999 21.6667 10.9999C21.2246 10.9999 20.8007 11.1931 20.4882 11.5369C20.1756 11.8807 20 12.347 20 12.8333C20 13.3195 20.1756 13.7858 20.4882 14.1296C20.8007 14.4735 21.2246 14.6666 21.6667 14.6666Z" fill="#1E90FF"/>
<path d="M21.6667 7.33329C24.7609 7.33329 27.7283 8.68537 29.9162 11.0921C32.1042 13.4988 33.3333 16.763 33.3333 20.1666C33.3333 20.6529 33.5089 21.1192 33.8215 21.463C34.134 21.8068 34.558 22 35 22C35.442 22 35.866 21.8068 36.1785 21.463C36.4911 21.1192 36.6667 20.6529 36.6667 20.1666C36.6667 15.7906 35.0863 11.5937 32.2733 8.49936C29.4602 5.40501 25.6449 3.66663 21.6667 3.66663C21.2246 3.66663 20.8007 3.85978 20.4882 4.2036C20.1756 4.54741 20 5.01373 20 5.49996C20 5.98619 20.1756 6.45251 20.4882 6.79632C20.8007 7.14014 21.2246 7.33329 21.6667 7.33329Z" fill="#1E90FF"/>
<path d="M36.2499 29.1684C36.1582 28.874 36 28.6102 35.7901 28.4018C35.5801 28.1933 35.3254 28.047 35.0499 27.9767L25.0499 25.465C24.7785 25.3973 24.496 25.4055 24.2281 25.4887C23.9603 25.572 23.7157 25.7277 23.5166 25.9417C23.2833 26.18 23.2666 26.1984 22.1833 28.4717C18.5886 26.6496 15.7082 23.4683 14.0666 19.5067C16.1833 18.3334 16.1999 18.3334 16.4166 18.0584C16.6111 17.8394 16.7527 17.5703 16.8284 17.2757C16.9041 16.9811 16.9115 16.6703 16.8499 16.3717L14.5666 5.50002C14.5027 5.19696 14.3697 4.91678 14.1802 4.68586C13.9906 4.45493 13.7508 4.28086 13.4833 4.18002C13.094 4.0271 12.6921 3.91657 12.2833 3.85002C11.862 3.74258 11.4321 3.68117 10.9999 3.66669C8.96659 3.66669 7.01655 4.5552 5.57877 6.13675C4.14099 7.71831 3.33325 9.86336 3.33325 12.1C3.34207 19.585 6.04906 26.7606 10.8606 32.0533C15.6721 37.346 22.1954 40.3237 28.9999 40.3334C30.0067 40.3334 31.0037 40.1152 31.9338 39.6914C32.864 39.2676 33.7092 38.6464 34.4211 37.8633C35.133 37.0802 35.6977 36.1505 36.083 35.1273C36.4683 34.1041 36.6666 33.0075 36.6666 31.9C36.6671 31.4334 36.6337 30.9675 36.5666 30.5067C36.4965 30.0513 36.3906 29.6035 36.2499 29.1684ZM28.9999 36.6667C23.0781 36.6618 17.4001 34.072 13.2127 29.4659C9.02539 24.8598 6.671 18.614 6.66659 12.1C6.67097 10.8373 7.12893 9.62769 7.94064 8.73481C8.75235 7.84193 9.852 7.33818 10.9999 7.33335H11.5499L13.3333 15.84L12.4333 16.3534C10.9999 17.1784 9.86659 17.8384 10.4666 19.2684C11.4436 22.3109 13.0245 25.0759 15.0945 27.3623C17.1644 29.6487 19.6714 31.3993 22.4333 32.4867C23.8333 33.11 24.3833 31.955 25.1333 30.36L25.6166 29.3517L33.3333 31.295V31.9C33.3289 33.1627 32.8709 34.3723 32.0592 35.2652C31.2475 36.1581 30.1478 36.6619 28.9999 36.6667Z" fill="#1E90FF"/>
</svg>
